HIERARCHY
ROOT Hips
{
  OFFSET 0 36.3817 0
  CHANNELS 6 Xposition Yposition Zposition Zrotation Xrotation Yrotation
  JOINT RightUpLeg
  {
    OFFSET -4.29018 -2.89678 0.143039
    CHANNELS 3 Zrotation Xrotation Yrotation
    JOINT RightLeg
    {
      OFFSET -0.168672 -10.876 -0.198176
      CHANNELS 3 Zrotation Xrotation Yrotation
      JOINT RightFoot
      {
        OFFSET 0.157923 -15.9551 -0.639649
        CHANNELS 3 Zrotation Xrotation Yrotation
        JOINT RightToeBase
        {
          OFFSET -0.0414727 -3.68646 5.89146
          CHANNELS 3 Zrotation Xrotation Yrotation
          End Site
          {
            OFFSET -0.058008 -0.022426 3.3914
          }
        }
      }
    }
  }
  JOINT LeftUpLeg
  {
    OFFSET 4.29018 -2.89678 0.143039
    CHANNELS 3 Zrotation Xrotation Yrotation
    JOINT LeftLeg
    {
      OFFSET 0.168672 -10.876 -0.198176
      CHANNELS 3 Zrotation Xrotation Yrotation
      JOINT LeftFoot
      {
        OFFSET -0.157923 -15.9551 -0.639649
        CHANNELS 3 Zrotation Xrotation Yrotation
        JOINT LeftToeBase
        {
          OFFSET 0.0414727 -3.68646 5.89146
          CHANNELS 3 Zrotation Xrotation Yrotation
          End Site
          {
            OFFSET 0 0 0
          }
        }
      }
    }
  }
  JOINT Spine
  {
    OFFSET 5.86144e-05 2.32248 -0.145562
    CHANNELS 3 Zrotation Xrotation Yrotation
    JOINT Spine1
    {
      OFFSET 0 6.08593 -0.152112
      CHANNELS 3 Zrotation Xrotation Yrotation
      JOINT Spine2
      {
        OFFSET 0 6.33752 -0.148988
        CHANNELS 3 Zrotation Xrotation Yrotation
        JOINT RightShoulder
        {
          OFFSET -2.05493 4.15599 -0.189712
          CHANNELS 3 Zrotation Xrotation Yrotation
          JOINT RightArm
          {
            OFFSET -4.33325 -1.05627 -0.0141634
            CHANNELS 3 Zrotation Xrotation Yrotation
            JOINT RightForeArm
            {
              OFFSET -10.3086 -5.16798e-05 0
              CHANNELS 3 Zrotation Xrotation Yrotation
              JOINT RightHand
              {
                OFFSET -10.1392 -4.937e-05 0
                CHANNELS 3 Zrotation Xrotation Yrotation
                End Site
                {
                  OFFSET -3.93579 -5.00749e-05 0
                }
              }
            }
          }
        }
        JOINT LeftShoulder
        {
          OFFSET 2.05493 4.15599 -0.189712
          CHANNELS 3 Zrotation Xrotation Yrotation
          JOINT LeftArm
          {
            OFFSET 4.33325 -1.05627 -0.0141634
            CHANNELS 3 Zrotation Xrotation Yrotation
            JOINT LeftForeArm
            {
              OFFSET 10.3086 -5.16798e-05 0
              CHANNELS 3 Zrotation Xrotation Yrotation
              JOINT LeftHand
              {
                OFFSET 10.1392 -4.937e-05 0
                CHANNELS 3 Zrotation Xrotation Yrotation
                End Site
                {
                  OFFSET 3.93579 -5.00749e-05 0
                }
              }
            }
          }
        }
        JOINT Neck
        {
          OFFSET 0 5.46156 -0.234248
          CHANNELS 3 Zrotation Xrotation Yrotation
          JOINT Head
          {
            OFFSET 0 3.87151 0.0520564
            CHANNELS 3 Zrotation Xrotation Yrotation
            End Site
            {
              OFFSET 0 12.6919 0
            }
          }
        }
      }
    }
  }
}
MOTION
Frames:	16
Frame Time:	0.0333333
-6.27504 36.2818 90.7647 9.06637 2.48333 96.1303 -9.22816 27.3785 -24.7608 -0.00768593 5.02183 -0.269704 14.6638 4.74525 -17.5155 9.81996e-07 -26.1502 -2.29988e-06 -1.44828 -8.75716 22.4101 0.00605781 11.8489 0.074454 6.53974 -13.1148 26.7481 -1.94869e-06 -13.7478 5.30637e-07 0.327972 3.70403 3.81105 0.409207 7.42169 7.62481 0.409209 7.42169 7.62481 -21.9607 -7.5013 -6.1271 79.0376 0.825413 15.4231 -2.43063e-05 -2.13497e-06 33.373 -16.3008 -14.4905 -5.04884 14.256 11.4553 -6.10914 -86.2744 12.2177 -8.18346 3.05303e-05 -1.48185e-06 -18.4413 4.9019 -3.35082 -2.22616 6.78421 7.26946 12.378 10.4925 -2.9756 38.4224 
-5.27307 36.0116 90.1871 8.86174 3.26628 97.0028 -11.3889 29.0948 -23.0959 -0.00938022 5.32258 -0.332949 17.0117 5.54313 -18.4595 -6.31381e-06 -26.4724 4.45722e-06 -2.04947 -9.64134 23.32 0.0187326 14.6874 0.0869302 7.06824 -9.61135 29.3776 -1.41238e-06 -14.5581 -3.40243e-06 0.133994 3.58476 4.02934 0.0147208 7.17003 8.07422 0.0147211 7.17003 8.07424 -21.3953 -7.44279 -5.94983 79.6997 2.66643 15.6034 9.67405e-05 -1.03128e-05 35.6518 -16.1079 -13.265 -4.45953 13.4552 11.5464 -5.65926 -86.5571 11.9845 -7.2718 3.58188e-07 -9.1432e-06 -17.656 4.18524 -2.14598 -2.13499 7.32545 6.77482 12.0769 9.90052 -3.09777 37.889 
-4.23823 35.7739 89.4482 8.45578 4.70872 98.0653 -14.8861 30.211 -20.3742 -0.0121541 6.10647 -0.479107 19.9103 7.63241 -20.2026 -4.9811e-06 -27.0595 2.19737e-06 -3.26237 -10.878 22.1842 0.0207301 18.1953 0.039927 4.62812 -6.7872 28.8297 -3.94664e-06 -13.8696 -2.80341e-06 -0.196108 3.44655 4.12877 -0.642559 6.86995 8.29181 -0.642555 6.86995 8.29179 -20.084 -7.36037 -5.99981 79.9311 4.74606 15.7268 5.18269e-05 -8.19217e-08 37.3952 -16.2364 -11.4193 -4.01034 12.1724 11.8347 -5.06398 -86.2351 11.9587 -6.60269 -2.26012e-05 4.74121e-07 -16.9931 3.32261 -0.173701 -1.70129 7.79126 6.42694 11.8347 9.46053 -3.02833 37.4729 
-3.25003 35.6381 88.6348 8.29811 5.90971 99.7584 -18.4904 28.3322 -15.6843 -0.0287435 10.991 -0.597785 21.9301 10.7409 -23.6053 1.00239e-05 -26.653 1.03149e-06 -4.59249 -11.6585 21.5919 0.00495443 22.1944 0.0342085 4.33177 -6.40034 27.0814 -3.86263e-06 -13.7814 4.07402e-08 -0.442621 3.373 4.1579 -1.13245 6.70477 8.36346 -1.13245 6.70477 8.36348 -19.1577 -7.00213 -6.26274 81.141 6.18339 15.2539 -5.57058e-05 -5.57533e-08 38.3897 -16.8968 -10.3509 -3.72066 11.5127 12.1466 -5.14759 -85.9763 12.0931 -6.82869 2.08514e-05 -2.25788e-06 -15.9169 3.21921 -0.771193 -1.98912 8.04723 6.03627 11.4027 9.36348 -2.90939 36.8692 
-2.36074 35.6064 87.8152 9.37251 6.34212 101.667 -19.8059 23.6843 -9.86342 -0.212859 19.1021 -0.637345 20.9075 17.4654 -28.208 -5.42431e-06 -24.0089 -6.64138e-06 -5.49548 -9.57747 22.0476 -0.0334829 24.2526 0.058718 5.52285 -8.0878 24.8175 -2.94014e-07 -13.1428 3.10666e-07 -0.378243 3.50591 4.15692 -1.01348 6.97492 8.36035 -1.01348 6.97492 8.36036 -19.4721 -6.79167 -6.37384 83.5861 6.90684 13.8342 -2.31946e-05 -1.25955e-05 38.1399 -16.8054 -10.2676 -3.43729 11.7766 12.1468 -5.6161 -86.5898 12.2863 -7.51677 -3.45303e-05 -1.00207e-05 -14.9427 2.97078 2.37311 -1.4574 7.68449 5.99646 11.2299 9.28342 -3.11228 35.9824 
-1.62668 35.6004 87.0497 10.6333 6.34677 103.685 -19.0061 17.6159 -6.98031 -0.245346 27.0951 -0.64595 15.8779 28.2994 -30.2216 1.14325e-05 -24.1324 3.97719e-06 -6.41395 -6.56211 21.8857 -0.0128546 24.5334 0.0818916 7.15973 -9.74033 23.4207 1.40282e-06 -12.8767 1.00836e-05 -0.151271 3.66776 4.02807 -0.56267 7.31579 8.09072 -0.562668 7.31579 8.09069 -19.7831 -6.95336 -6.36305 85.7322 7.52867 12.38 7.05624e-05 -1.77499e-07 36.4261 -15.5061 -9.30375 -3.29286 12.09 11.8259 -5.83394 -87.4404 12.6305 -8.11078 1.32497e-05 -4.05646e-06 -14.775 2.39297 5.657 -0.756418 6.99488 5.99891 11.3391 9.30348 -2.9322 35.2996 
-0.970329 35.7053 86.3565 11.23 6.1515 106.41 -17.8274 11.4558 -4.99 -0.163653 36.3556 -0.679824 15.6613 27.7924 -28.693 8.9793e-06 -22.5908 -1.63447e-05 -7.4205 -3.36309 21.0601 0.0219373 22.9029 0.0956641 8.80557 -10.4931 21.9184 -9.74451e-07 -10.1778 -2.06892e-06 0.0749509 3.73584 3.75732 -0.0964954 7.46854 7.53385 -0.0964939 7.46854 7.53382 -19.4356 -6.54005 -6.45192 86.8709 8.39374 11.7252 -8.32052e-06 -6.80621e-07 34.1196 -14.5203 -8.73176 -3.35619 12.8268 11.4997 -6.22921 -88.0522 13.879 -9.1116 -2.41617e-05 -5.37202e-07 -15.7275 2.20798 3.77689 -1.10439 6.63327 5.72078 11.283 9.12848 -2.6937 34.9073 
-0.337946 35.9396 85.6859 11.5623 5.53001 109.733 -15.4306 4.84771 -4.95081 -0.0801205 45.5383 -0.461105 9.64605 21.4259 -20.7724 -4.77878e-06 -24.7928 -6.15504e-06 -7.95604 0.735994 19.3298 0.0211781 19.0675 0.0730329 8.59058 -10.293 20.2706 -8.71579e-07 -10.4723 -1.00417e-05 0.373328 3.75935 3.42631 0.521958 7.53424 6.85028 0.52196 7.53424 6.85026 -18.9824 -5.80932 -6.66421 87.4454 9.1981 11.093 -5.23367e-05 -8.16618e-06 31.9078 -13.9539 -7.46965 -3.34281 13.9742 10.5957 -6.95361 -88.4259 16.0342 -9.94774 -4.1134e-05 -4.41138e-06 -18.0937 2.22886 1.78534 -1.53206 6.46763 5.26578 10.9399 8.90588 -2.83437 34.3463 
0.247819 36.1363 85.0278 12.0579 4.86307 113.426 -13.3026 0.319779 -4.95281 -0.0573187 49.8616 -0.413624 9.37777 16.8601 -18.1417 -4.60528e-06 -23.1124 -1.42058e-05 -7.95975 4.42556 17.7055 0.0154629 15.9236 0.0649278 8.92544 -10.0904 18.5659 1.07183e-06 -10.4091 1.1178e-05 0.722078 3.81766 3.03772 1.24404 7.66813 6.04706 1.24404 7.66813 6.04707 -18.3264 -4.79102 -6.8642 87.6058 9.29372 10.4867 2.74908e-05 8.08776e-07 29.8953 -13.291 -5.82348 -3.16722 15.2242 10.0662 -7.72337 -88.1905 18.5157 -11.5009 3.46982e-05 -5.29653e-07 -21.4821 2.74603 0.296238 -1.81831 6.23575 4.67934 10.6533 8.77086 -3.17294 33.9879 
0.801739 36.2659 84.3975 12.5935 4.20336 117.429 -11.1076 -2.82339 -5.03272 -0.054327 50.4201 -0.401205 10.0276 14.7398 -18.9505 -5.70026e-06 -22.5685 -5.94866e-06 -7.41884 7.61499 15.8037 0.0127224 13.6086 0.0611583 9.11537 -10.4073 16.6748 8.93371e-07 -10.7196 -3.18839e-05 1.08077 3.87039 2.64259 1.98799 7.78598 5.22974 1.98799 7.78599 5.22975 -17.5247 -3.7528 -7.37513 87.8456 7.98533 9.53448 -2.14473e-05 -7.81014e-06 27.9375 -12.6938 -4.74685 -2.97098 16.5284 9.22727 -8.50833 -87.6515 20.8565 -13.0583 -9.40775e-05 -1.01805e-05 -25.3079 3.70374 -1.60932 -2.41696 6.35222 3.96911 10.1163 8.3767 -3.59446 33.3508 
1.32148 36.3614 83.7979 12.9864 3.79317 121.729 -8.98095 -5.00829 -5.27657 -0.0520924 48.5732 -0.338 8.96598 12.1351 -20.6587 -2.13931e-06 -23.1228 -3.00491e-06 -6.79006 10.4264 13.3632 0.00925292 11.5546 0.0459819 9.39792 -10.5591 14.9099 1.93928e-06 -10.8452 -3.73984e-06 1.3643 3.92762 2.23318 2.58298 7.90454 4.38743 2.58298 7.90454 4.38745 -16.6268 -2.98664 -7.95712 87.8626 6.18169 8.09753 -1.40134e-05 7.57456e-07 26.0977 -12.4467 -4.27069 -3.04969 18.2394 7.94116 -9.51612 -87.5294 22.2941 -14.4377 -3.89576e-05 -2.14648e-06 -29.0328 4.8381 -4.27806 -2.99942 6.84419 3.16137 9.40294 7.96752 -3.96765 32.6654 
1.8028 36.4217 83.2301 13.3021 3.77477 126.003 -6.65558 -6.2796 -4.39061 -0.0494415 44.6169 -0.249506 6.61803 9.06066 -23.0339 6.00481e-06 -22.8781 2.08469e-06 -6.2441 13.1921 10.9434 0.00551222 9.46956 0.0196008 9.55602 -10.5515 13.242 3.74901e-06 -10.738 -5.49492e-06 1.56628 4.04094 1.83678 3.01291 8.12869 3.57532 3.0129 8.12869 3.57536 -15.7414 -2.2405 -8.60104 87.6715 4.12254 6.75079 -3.1205e-05 -1.01358e-05 24.0532 -12.2177 -4.11906 -2.84708 20.0845 6.32094 -10.4464 -87.6618 23.3542 -15.7047 3.31551e-05 1.00333e-05 -32.4004 6.27853 -6.13677 -3.07225 7.37115 2.00935 8.69441 7.9496 -4.12284 32.1162 
2.27489 36.4401 82.6722 13.2533 4.15358 130.2 -4.92726 -6.52667 -2.72767 -0.0506503 38.3777 -0.176461 4.32151 6.89209 -25.6685 -3.15696e-08 -23.5199 8.5384e-06 -5.75527 15.5482 9.28882 0.00270926 7.93551 -0.00714875 9.27527 -10.8007 10.6779 -1.57019e-06 -10.468 -1.0057e-05 1.64368 4.15395 1.46624 3.19269 8.34711 2.82329 3.19269 8.34711 2.82331 -14.8706 -1.51258 -9.09068 87.486 1.53455 5.43106 -1.04216e-05 -1.56125e-05 21.5832 -12.3828 -3.19271 -2.78037 21.6407 4.6989 -11.5033 -87.4829 23.8202 -17.1141 -7.96578e-05 -8.02575e-06 -34.9754 7.08967 -7.22374 -3.25448 7.93624 0.97032 7.87756 7.97807 -4.48307 31.5994 
2.73193 36.4284 82.1179 12.7149 4.57561 134.276 -4.20277 -6.38626 -0.93659 -0.0508242 30.7388 -0.126307 2.99806 5.23655 -27.129 -3.99517e-06 -23.5962 -2.20212e-05 -5.39629 17.2127 7.61136 0.000826521 6.87036 -0.0305437 8.95495 -11.0841 8.22274 -2.5027e-08 -10.1032 4.81878e-06 1.64255 4.20995 1.12188 3.21507 8.44967 2.13054 3.21506 8.44967 2.13056 -14.3933 -0.87731 -9.33753 87.5936 -1.31017 4.15418 -1.43966e-05 -1.98122e-05 18.5004 -12.7431 -3.01997 -2.8355 22.8264 3.23403 -12.5457 -86.9014 24.2491 -18.7654 5.36981e-05 -1.02562e-06 -36.6602 7.8581 -7.29529 -3.41974 8.32316 0.242486 7.17294 8.16371 -4.90563 31.161 
3.20222 36.3776 81.5472 11.7703 4.81814 137.852 -4.4115 -6.39491 0.509336 -0.0192027 22.555 -0.0912446 2.38857 3.46508 -25.897 5.07745e-06 -22.939 -1.58654e-06 -5.18639 18.3607 5.61445 -0.000667949 6.12007 -0.0508431 8.51507 -11.4822 6.31181 7.32463e-08 -10.5783 -4.38794e-06 1.5924 4.16937 0.882344 3.13261 8.36127 1.65445 3.13261 8.36127 1.65446 -14.3299 -0.523526 -9.70555 87.7969 -4.10883 2.79548 -8.75953e-06 -3.99235e-06 14.9524 -12.947 -1.23412 -3.18389 23.769 1.82183 -13.3505 -86.4033 24.7364 -20.5419 7.3022e-05 1.47468e-05 -36.9385 8.32545 -7.00871 -3.33774 8.53783 -0.128874 6.54631 8.50299 -5.29776 30.594 
3.6933 36.3019 80.9587 10.701 5.04569 140.633 -5.29999 -6.91689 0.260132 -0.00313196 14.9236 -0.046665 2.4345 1.97768 -20.691 -2.23407e-06 -22.8168 -1.68037e-05 -5.41542 19.4507 3.56948 -0.00196363 5.3968 -0.0712633 8.83856 -11.4164 5.7593 -1.33612e-06 -10.1798 -4.8542e-06 1.49113 4.11746 0.767914 2.93811 8.25325 1.43343 2.93812 8.25325 1.43344 -14.3232 -0.315119 -10.0294 87.7819 -6.93148 1.46247 9.64844e-06 -7.94174e-06 11.6599 -13.3376 0.494975 -3.57384 24.2114 0.812335 -13.9803 -86.0184 24.7145 -21.9521 -4.66771e-05 -1.53428e-05 -37.0015 8.36181 -6.05196 -3.10328 8.64343 -0.332314 6.00942 8.72957 -5.61909 29.8956 
